HIERARCHY
ROOT pelvis
{
  OFFSET 0 100 0
  CHANNELS 6 Xposition Yposition Zposition Zrotation Xrotation Yrotation
  JOINT pelvis_right_femur
  {
    OFFSET -10.78128 -3.44521 -0.5502486
    CHANNELS 3 Zrotation Xrotation Yrotation
    JOINT right_femur_tibia
    {
      OFFSET -0.8047443 -44.0398 -0.1307829
      CHANNELS 3 Zrotation Xrotation Yrotation
      JOINT right_tibia_foot
      {
        OFFSET 3.006224 -47.83518 -5
        CHANNELS 3 Zrotation Xrotation Yrotation
        End Site
        {
          OFFSET 0 -5 15
        }
      }
    }
  }
  JOINT pelvis_left_femur
  {
    OFFSET 10.78128 -3.44521 -0.5502486
    CHANNELS 3 Zrotation Xrotation Yrotation
    JOINT left_femur_tibia
    {
      OFFSET 0.8047443 -44.0398 -0.1307829
      CHANNELS 3 Zrotation Xrotation Yrotation
      JOINT left_tibia_foot
      {
        OFFSET -4.370144 -48.10324 -4.275266
        CHANNELS 3 Zrotation Xrotation Yrotation
        End Site
        {
          OFFSET 0 -5 15
        }
      }
    }
  }
  JOINT pelvis_spine1
  {
    OFFSET 0 6.468898 -3.129235
    CHANNELS 3 Zrotation Xrotation Yrotation
    JOINT spine1
    {
      OFFSET 0 23.15396 4.99043
      CHANNELS 3 Zrotation Xrotation Yrotation
      JOINT spine2
      {
        OFFSET 0 20.79997 -5.064912
        CHANNELS 3 Zrotation Xrotation Yrotation
        JOINT neck
        {
          OFFSET 0 14.38658 9.616178
          CHANNELS 3 Zrotation Xrotation Yrotation
          End Site
          {
            OFFSET 0 20 0
          }
        }
      }
      JOINT right_manubrium
      {
        OFFSET -5.722621 16.35077 3.967754
        CHANNELS 3 Zrotation Xrotation Yrotation
        JOINT right_clavicle
        {
          OFFSET -13.16364 1.694482 -4.693211
          CHANNELS 3 Zrotation Xrotation Yrotation
          JOINT right_humerus
          {
            OFFSET -28.5034 -0.3100689 -2.792744
            CHANNELS 3 Zrotation Xrotation Yrotation
            JOINT right_radius
            {
              OFFSET -25.15693 0.02248979 -1.271978
              CHANNELS 3 Zrotation Xrotation Yrotation
              End Site
              {
                OFFSET -15 0 0
              }
            }
          }
        }
      }
      JOINT left_manubrium
      {
        OFFSET 5.722621 16.35077 3.967754
        CHANNELS 3 Zrotation Xrotation Yrotation
        JOINT left_clavicle
        {
          OFFSET 13.16364 1.694482 -4.693211
          CHANNELS 3 Zrotation Xrotation Yrotation
          JOINT left_humerus
          {
            OFFSET 29.39168 -1.063119 -2.237045
            CHANNELS 3 Zrotation Xrotation Yrotation
            JOINT left_radius
            {
              OFFSET 24.59957 -0.9528479 0.9047498
              CHANNELS 3 Zrotation Xrotation Yrotation
              End Site
              {
                OFFSET 15 -0 -0
              }
            }
          }
        }
      }
    }
  }
}
MOTION
Frames: 15
Frame Time: 0.0416666666667
0 103.5113 0 0.661963 -1.000404 -0.041384 4.721774 -17.88236 9.492458 -0 37.8481 -0 -7.041082 -16.2212 -2.568128 -7.292705 9.61629 -24.36481 -0 4.398289 -0 10.29578 -18.39692 29.11906 -3.724501 -3.015304 4.66245 2.535474 9.250624 -6.901876 1.718783 22.56481 6.708435 3.317203 -25.2572 9.756929 5.944859 -20.35015 11.43876 84.64654 34.30545 -17.24512 -0 0 16.73144 -5.094606 6.239839 3.532279 6.008886 -18.97888 -1.303462 -95.74207 27.08771 23.52379 0 0 -14.28729 9.2124 18.38977 3.302068
0.3567505 104.71 1.112671 0.6774415 -1.081595 -0.09550755 4.687448 -17.8127 9.448851 -0 37.9364 -0 -7.091957 -16.15657 -2.567928 -7.300229 9.642985 -24.36657 -0 4.437415 -0 10.34241 -18.3761 29.16448 -3.733747 -3.012138 4.650852 2.524959 9.271958 -6.886802 1.725669 22.59801 6.693534 3.312584 -25.23594 9.748111 5.905291 -20.35723 11.43699 84.68909 34.21395 -17.23182 -0 0 16.69265 -5.123775 6.197029 3.53632 6.002898 -18.98894 -1.336731 -95.70906 27.0303 23.46742 0 0 -14.24155 9.287828 18.41442 3.190565
0.6546161 105.7629 2.659585 0.5120001 -0.6479493 -0.06538153 4.637022 -20.30767 8.274347 -0 34.31036 -0 -7.016636 -14.03844 -2.547374 -6.91071 10.98217 -23.0193 -0 4.154003 -0 8.906268 -19.23522 27.25151 -3.504476 -2.795343 4.316271 2.535153 9.311005 -7.286524 1.529593 22.32692 6.972052 3.465137 -25.0481 9.578368 5.664703 -19.86668 11.41192 85.68797 34.33442 -18.55315 -0 0 15.57086 -6.491128 6.997295 4.083391 6.32783 -19.92075 -1.70065 -94.27092 27.14662 21.74949 0 0 -16.67751 8.596105 17.75875 4.05649
0.9214101 106.7235 4.532048 0.3002729 0.08863078 0.032269 4.82617 -22.29841 7.799229 -0 31.43733 -0 -6.672244 -13.11194 -2.550649 -6.627748 11.69748 -22.13728 -0 3.907096 -0 7.741256 -19.82388 25.76859 -3.286386 -2.688573 4.17743 2.606301 9.204807 -7.615057 1.387689 21.95676 7.205579 3.567542 -25.06204 9.533128 5.692856 -19.51109 11.38921 86.10311 34.82597 -19.46039 -0 0 15.09046 -7.160522 7.709662 4.379675 6.576768 -20.43332 -1.719731 -93.50595 27.41223 20.9218 0 0 -18.42273 7.89853 17.17435 5.022344
1.158973 107.5878 6.756095 0.06977056 0.7899789 0.1872766 5.084272 -24.23675 7.333586 -0 28.53489 -0 -6.397603 -12.21305 -2.527014 -6.364512 12.42618 -21.25256 -0 3.995575 -0 6.75951 -20.26954 24.37886 -3.035161 -2.621874 4.056323 2.684931 9.112668 -7.907101 1.288237 21.59101 7.37547 3.633043 -25.12726 9.508088 5.600584 -19.18527 11.34408 86.55303 35.04545 -20.30101 -0 0 14.61688 -7.743493 8.274896 4.592399 6.83759 -20.91698 -1.720641 -92.69996 27.30786 20.02686 0 0 -19.96714 7.663613 16.61121 5.378131
1.373995 108.3804 9.341238 -0.1941949 1.547748 0.3901115 5.434616 -26.06442 6.99884 -0 25.74707 -0 -6.127726 -11.45741 -2.48563 -6.118534 13.05245 -20.42467 -0 4.396884 -0 5.840721 -20.57156 23.03893 -2.757726 -2.589599 3.972934 2.778007 9.00527 -8.17637 1.212151 21.20073 7.518344 3.682741 -25.25948 9.510519 5.516711 -18.8801 11.29105 86.9318 35.24974 -21.06544 -0 0 14.22474 -8.175997 8.785592 4.73269 7.084575 -21.32195 -1.650337 -92.00653 27.08767 19.28398 0 0 -21.31241 7.594421 16.06195 5.540993
1.571698 109.1255 12.31154 -0.4916566 2.325735 0.6345222 5.85559 -27.77912 6.735579 -0 23.07178 -0 -5.900693 -10.69269 -2.420664 -5.881493 13.61036 -19.60218 -0 5.232906 -0 4.929989 -20.71613 21.68497 -2.448314 -2.579739 3.910698 2.876657 8.903802 -8.427204 1.152549 20.7958 7.640637 3.725217 -25.43912 9.525289 5.425638 -18.57944 11.23321 87.29719 35.41743 -21.79229 -0 0 13.8442 -8.531122 9.260456 4.831044 7.312148 -21.68323 -1.543212 -91.38192 26.74829 18.64261 0 0 -22.50148 7.664893 15.51605 5.540831
1.75756 109.856 15.7015 -0.8252909 3.109091 0.9160037 6.337318 -29.35212 6.525525 -0 20.54634 -0 -5.732104 -9.831326 -2.332033 -5.647494 14.0946 -18.75485 -0 6.633094 -0 3.96399 -20.67526 20.26178 -2.102001 -2.582606 3.863337 2.97508 8.81987 -8.663412 1.102455 20.37855 7.751045 3.76889 -25.65318 9.542364 5.337989 -18.2697 11.17523 87.67395 35.57215 -22.50622 -0 0 13.43923 -8.850102 9.729513 4.910816 7.508132 -22.0138 -1.414482 -90.82139 26.32733 18.10714 0 0 -23.55585 7.80862 14.9603 5.467911
1.937025 110.6139 19.55704 -1.193687 3.861491 1.229532 6.863693 -30.72821 6.339574 -0 18.21788 -0 -5.648667 -8.775154 -2.220564 -5.411823 14.49558 -17.84547 -0 8.783565 -0 2.889016 -20.40158 18.72335 -1.713239 -2.58718 3.824261 3.065107 8.771638 -8.884578 1.057094 19.95865 7.85282 3.819809 -25.88237 9.548485 5.253649 -17.93823 11.12207 88.09667 35.71054 -23.22841 -0 0 12.9639 -9.182008 10.21419 4.995337 7.656843 -22.32871 -1.28725 -90.31165 25.84199 17.66851 0 0 -24.48551 7.980164 14.38454 5.381987
2.115486 111.4536 23.93234 -1.58863 4.522692 1.566031 7.411679 -31.80101 6.147849 -0 16.16673 -0 -5.684792 -7.435358 -2.089089 -5.171214 14.78014 -16.83762 -0 11.93643 -0 1.662102 -19.82251 17.044 -1.278168 -2.580165 3.789674 3.135775 8.783334 -9.084288 1.013329 19.55518 7.944096 3.881946 -26.09928 9.526683 5.170279 -17.57539 11.08085 88.59897 35.81567 -23.96899 -0 0 12.37064 -9.576918 10.73 5.107177 7.734762 -22.63857 -1.190252 -89.84564 25.30756 17.32342 0 0 -25.27949 8.135417 13.78463 5.33868
2.297868 112.448 28.88139 -1.988329 4.993569 1.906536 7.946281 -32.37997 5.920186 -0 14.52578 -0 -5.883079 -5.748282 -1.943001 -4.924048 14.87149 -15.69907 -0 16.42119 -0 0.2640142 -18.83505 15.23876 -0.7979851 -2.544333 3.761434 3.171273 8.888594 -9.246113 0.9700497 19.20297 8.015125 3.955797 -26.26229 9.453806 5.082496 -17.17936 11.06297 89.20775 35.85088 -24.71603 -0 0 11.61554 -10.08677 11.28246 5.267948 7.706464 -22.9463 -1.161896 -89.42816 24.74039 17.0802 0 0 -25.89502 8.227949 13.16708 5.391261
2.487434 113.6943 34.43886 -2.347955 5.123074 2.21426 8.417466 -32.15133 5.634333 -0 13.49346 -0 -6.284646 -3.719711 -1.792834 -4.669279 14.61448 -14.41053 -0 22.61754 -0 -1.279653 -17.31187 13.39616 -0.2851967 -2.457013 3.753549 3.148962 9.13146 -9.338526 0.9286187 18.95877 8.044902 4.035784 -26.30866 9.298747 4.982852 -16.7662 11.08688 89.92629 35.75746 -25.41612 -0 0 10.67802 -10.76171 11.86236 5.496503 7.521609 -23.23977 -1.251909 -89.08623 24.16597 16.97135 0 0 -26.24614 8.200707 12.55414 5.596997
2.682902 115.3144 40.58491 -2.591028 4.709087 2.427956 8.762439 -30.66231 5.291721 -0 13.30107 -0 -6.901002 -1.50451 -1.661029 -4.401712 13.73419 -12.97787 -0 30.82781 -0 -2.872954 -15.13847 11.71468 0.2271786 -2.289739 3.802086 3.038725 9.560916 -9.311314 0.8930616 18.90232 7.998611 4.10655 -26.14961 9.023319 4.862033 -16.38631 11.18054 90.70555 35.45762 -25.94977 -0 0 9.601337 -11.64347 12.44131 5.806352 7.120005 -23.48343 -1.517522 -88.87774 23.62708 17.06465 0 0 -26.207 7.977833 11.9858 6.021167
2.873339 117.4338 47.19523 -2.615509 3.547552 2.46735 8.918412 -27.4014 4.937651 -0 14.06626 -0 -7.657368 0.4898547 -1.5946 -4.101002 11.82042 -11.44236 -0 40.94901 -0 -4.340367 -12.30911 10.50893 0.6770688 -2.012557 3.974365 2.807711 10.20865 -9.101388 0.8689096 19.11833 7.831829 4.140595 -25.67928 8.591587 4.708283 -16.14304 11.37886 91.40856 34.87555 -26.11811 -0 0 8.556229 -12.75677 12.97463 6.205645 6.458293 -23.61526 -2.004083 -88.88801 23.18704 17.4616 0 0 -25.65836 7.461923 11.50911 6.735507
3.033791 120.1137 54.00407 -2.336922 1.571482 2.264279 8.841328 -22.0799 4.658492 -0 15.48937 -0 -8.327467 1.568739 -1.670288 -3.717244 8.424153 -9.873066 -0 51.9178 -0 -5.467239 -9.078836 10.12138 0.9776253 -1.608744 4.360915 2.436554 11.04131 -8.660381 0.8593988 19.6422 7.511233 4.103185 -24.81713 7.994902 4.50429 -16.19308 11.70686 91.79829 33.98477 -25.67866 -0 0 7.892434 -14.1051 13.41942 6.707629 5.570417 -23.56443 -2.701234 -89.194 22.91238 18.25773 0 0 -24.60195 6.556609 11.14345 7.796191
